HIERARCHY
ROOT Hips
{
	OFFSET 0.000000 97.167313 0.000000
	CHANNELS 6 Xposition Yposition Zposition Xrotation Yrotation Zrotation
	JOINT Spine
	{
		OFFSET 0.000000 13.784798 0.064400
		CHANNELS 3 Xrotation Yrotation Zrotation
		JOINT Spine1
		{
			OFFSET 0.000000 12.037903 0.404700
			CHANNELS 3 Xrotation Yrotation Zrotation
			JOINT Spine2
			{
				OFFSET 0.000000 17.795601 0.420200
				CHANNELS 3 Xrotation Yrotation Zrotation
				JOINT Neck
				{
					OFFSET 0.000000 39.131302 11.954600
					CHANNELS 3 Xrotation Yrotation Zrotation
					JOINT Head
					{
						OFFSET 0.000000 14.456192 15.627699
						CHANNELS 3 Xrotation Yrotation Zrotation
						JOINT HeadTop_End
						{
							OFFSET 0.000000 15.703506 7.603401
							CHANNELS 3 Xrotation Yrotation Zrotation
							End Site
							{
								OFFSET 0.000000 17.447403 0.000000
							}
						}
					}
				}
				JOINT LeftShoulder
				{
					OFFSET 17.399500 24.608795 1.168800
					CHANNELS 3 Xrotation Yrotation Zrotation
					JOINT LeftArm
					{
						OFFSET 18.980635 5.765305 1.818600
						CHANNELS 3 Xrotation Yrotation Zrotation
						JOINT LeftForeArm
						{
							OFFSET 49.290169 0.000000 0.000000
							CHANNELS 3 Xrotation Yrotation Zrotation
							JOINT LeftHand
							{
								OFFSET 31.562012 0.000000 0.000000
								CHANNELS 3 Xrotation Yrotation Zrotation
								JOINT LeftHandThumb1
								{
									OFFSET 6.133995 -4.388519 7.076070
									CHANNELS 3 Xrotation Yrotation Zrotation
									JOINT LeftHandThumb2
									{
										OFFSET 6.037666 -3.485840 3.485847
										CHANNELS 3 Xrotation Yrotation Zrotation
										JOINT LeftHandThumb3
										{
											OFFSET 6.496506 -3.750763 3.750761
											CHANNELS 3 Xrotation Yrotation Zrotation
											JOINT LeftHandThumb4
											{
												OFFSET 5.616882 -3.242905 3.242910
												CHANNELS 3 Xrotation Yrotation Zrotation
												End Site
												{
													OFFSET -1.254608 7.132141 0.375429
												}
											}
										}
									}
								}
								JOINT LeftHandPinky1
								{
									OFFSET 18.920792 -0.453171 -11.426712
									CHANNELS 3 Xrotation Yrotation Zrotation
									JOINT LeftHandPinky2
									{
										OFFSET 4.919586 0.000000 0.000000
										CHANNELS 3 Xrotation Yrotation Zrotation
										JOINT LeftHandPinky3
										{
											OFFSET 5.233047 0.000000 0.000000
											CHANNELS 3 Xrotation Yrotation Zrotation
											JOINT LeftHandPinky4
											{
												OFFSET 5.571716 0.000000 0.000000
												CHANNELS 3 Xrotation Yrotation Zrotation
												End Site
												{
													OFFSET -3.459808 4.342407 -0.466164
												}
											}
										}
									}
								}
								JOINT LeftHandRing1
								{
									OFFSET 22.726120 -0.094986 -6.500475
									CHANNELS 3 Xrotation Yrotation Zrotation
									JOINT LeftHandRing2
									{
										OFFSET 6.408615 0.000000 0.000000
										CHANNELS 3 Xrotation Yrotation Zrotation
										JOINT LeftHandRing3
										{
											OFFSET 6.150223 0.000000 0.000000
											CHANNELS 3 Xrotation Yrotation Zrotation
											JOINT LeftHandRing4
											{
												OFFSET 6.145386 0.000000 0.000000
												CHANNELS 3 Xrotation Yrotation Zrotation
												End Site
												{
													OFFSET -3.671402 4.923981 -0.202372
												}
											}
										}
									}
								}
								JOINT LeftHandMiddle1
								{
									OFFSET 23.373947 0.000000 0.000001
									CHANNELS 3 Xrotation Yrotation Zrotation
									JOINT LeftHandMiddle2
									{
										OFFSET 6.996567 0.000000 0.000000
										CHANNELS 3 Xrotation Yrotation Zrotation
										JOINT LeftHandMiddle3
										{
											OFFSET 7.015945 0.000000 0.000000
											CHANNELS 3 Xrotation Yrotation Zrotation
											JOINT LeftHandMiddle4
											{
												OFFSET 7.721573 0.000000 0.000000
												CHANNELS 3 Xrotation Yrotation Zrotation
												End Site
												{
													OFFSET -4.651108 6.158463 0.251582
												}
											}
										}
									}
								}
								JOINT LeftHandIndex1
								{
									OFFSET 21.310577 -0.490082 6.209344
									CHANNELS 3 Xrotation Yrotation Zrotation
									JOINT LeftHandIndex2
									{
										OFFSET 7.536453 0.000000 0.000000
										CHANNELS 3 Xrotation Yrotation Zrotation
										JOINT LeftHandIndex3
										{
											OFFSET 7.512344 0.000000 0.000000
											CHANNELS 3 Xrotation Yrotation Zrotation
											JOINT LeftHandIndex4
											{
												OFFSET 10.212402 0.000000 0.000001
												CHANNELS 3 Xrotation Yrotation Zrotation
												End Site
												{
													OFFSET -5.180801 8.690506 1.388433
												}
											}
										}
									}
								}
							}
						}
					}
				}
				JOINT RightShoulder
				{
					OFFSET -17.399500 24.608795 1.168800
					CHANNELS 3 Xrotation Yrotation Zrotation
					JOINT RightArm
					{
						OFFSET -18.980635 5.765305 1.818600
						CHANNELS 3 Xrotation Yrotation Zrotation
						JOINT RightForeArm
						{
							OFFSET -49.290169 0.000000 0.000000
							CHANNELS 3 Xrotation Yrotation Zrotation
							JOINT RightHand
							{
								OFFSET -31.562012 0.000000 0.000000
								CHANNELS 3 Xrotation Yrotation Zrotation
								JOINT RightHandThumb1
								{
									OFFSET -6.133995 -4.388519 7.076070
									CHANNELS 3 Xrotation Yrotation Zrotation
									JOINT RightHandThumb2
									{
										OFFSET -6.037666 -3.485840 3.485847
										CHANNELS 3 Xrotation Yrotation Zrotation
										JOINT RightHandThumb3
										{
											OFFSET -6.496506 -3.750763 3.750761
											CHANNELS 3 Xrotation Yrotation Zrotation
											JOINT RightHandThumb4
											{
												OFFSET -5.616882 -3.242905 3.242910
												CHANNELS 3 Xrotation Yrotation Zrotation
												End Site
												{
													OFFSET 1.254608 7.132141 0.375429
												}
											}
										}
									}
								}
								JOINT RightHandIndex1
								{
									OFFSET -21.310577 -0.490082 6.209344
									CHANNELS 3 Xrotation Yrotation Zrotation
									JOINT RightHandIndex2
									{
										OFFSET -7.536453 0.000000 0.000000
										CHANNELS 3 Xrotation Yrotation Zrotation
										JOINT RightHandIndex3
										{
											OFFSET -7.512344 0.000000 0.000000
											CHANNELS 3 Xrotation Yrotation Zrotation
											JOINT RightHandIndex4
											{
												OFFSET -10.212402 0.000000 0.000001
												CHANNELS 3 Xrotation Yrotation Zrotation
												End Site
												{
													OFFSET 5.180801 8.690506 1.388433
												}
											}
										}
									}
								}
								JOINT RightHandMiddle1
								{
									OFFSET -23.373947 0.000000 0.000001
									CHANNELS 3 Xrotation Yrotation Zrotation
									JOINT RightHandMiddle2
									{
										OFFSET -6.996567 0.000000 0.000000
										CHANNELS 3 Xrotation Yrotation Zrotation
										JOINT RightHandMiddle3
										{
											OFFSET -7.015945 0.000000 0.000000
											CHANNELS 3 Xrotation Yrotation Zrotation
											JOINT RightHandMiddle4
											{
												OFFSET -7.721573 0.000000 0.000000
												CHANNELS 3 Xrotation Yrotation Zrotation
												End Site
												{
													OFFSET 4.651108 6.158463 0.251582
												}
											}
										}
									}
								}
								JOINT RightHandRing1
								{
									OFFSET -22.726120 -0.094986 -6.500475
									CHANNELS 3 Xrotation Yrotation Zrotation
									JOINT RightHandRing2
									{
										OFFSET -6.408615 0.000000 0.000000
										CHANNELS 3 Xrotation Yrotation Zrotation
										JOINT RightHandRing3
										{
											OFFSET -6.150223 0.000000 0.000000
											CHANNELS 3 Xrotation Yrotation Zrotation
											JOINT RightHandRing4
											{
												OFFSET -6.145386 0.000000 0.000000
												CHANNELS 3 Xrotation Yrotation Zrotation
												End Site
												{
													OFFSET 3.671402 4.923981 -0.202372
												}
											}
										}
									}
								}
								JOINT RightHandPinky1
								{
									OFFSET -18.920792 -0.453171 -11.426712
									CHANNELS 3 Xrotation Yrotation Zrotation
									JOINT RightHandPinky2
									{
										OFFSET -4.919586 0.000000 0.000000
										CHANNELS 3 Xrotation Yrotation Zrotation
										JOINT RightHandPinky3
										{
											OFFSET -5.233047 0.000000 0.000000
											CHANNELS 3 Xrotation Yrotation Zrotation
											JOINT RightHandPinky4
											{
												OFFSET -5.571716 0.000000 0.000000
												CHANNELS 3 Xrotation Yrotation Zrotation
												End Site
												{
													OFFSET 3.459808 4.342407 -0.466164
												}
											}
										}
									}
								}
							}
						}
					}
				}
			}
		}
	}
	JOINT LeftUpLeg
	{
		OFFSET 19.899099 -7.885101 -3.429500
		CHANNELS 3 Xrotation Yrotation Zrotation
		JOINT LeftLeg
		{
			OFFSET 1.745560 -36.997807 10.304700
			CHANNELS 3 Xrotation Yrotation Zrotation
			JOINT LeftFoot
			{
				OFFSET -1.745558 -29.803308 -13.615400
				CHANNELS 3 Xrotation Yrotation Zrotation
				JOINT LeftToeBase
				{
					OFFSET 1.181900 -18.539904 15.226099
					CHANNELS 3 Xrotation Yrotation Zrotation
					JOINT LeftToe_End
					{
						OFFSET -0.863701 1.402801 16.534700
						CHANNELS 3 Xrotation Yrotation Zrotation
						End Site
						{
							OFFSET 0.000000 16.616566 0.000000
						}
					}
				}
			}
		}
	}
	JOINT RightUpLeg
	{
		OFFSET -19.899099 -7.885101 -3.429500
		CHANNELS 3 Xrotation Yrotation Zrotation
		JOINT RightLeg
		{
			OFFSET -1.745560 -36.997807 10.304700
			CHANNELS 3 Xrotation Yrotation Zrotation
			JOINT RightFoot
			{
				OFFSET 1.745558 -29.803308 -13.615400
				CHANNELS 3 Xrotation Yrotation Zrotation
				JOINT RightToeBase
				{
					OFFSET -1.181900 -18.539904 15.226099
					CHANNELS 3 Xrotation Yrotation Zrotation
					JOINT RightToe_End
					{
						OFFSET 0.863701 1.402801 16.534700
						CHANNELS 3 Xrotation Yrotation Zrotation
						End Site
						{
							OFFSET 0.000000 16.616566 0.000000
						}
					}
				}
			}
		}
	}
}
MOTION
Frames: 5
Frame Time: 0.033333
-2.493541 76.916031 0.740421 9.788787 -29.877703 2.320442 4.306116 4.846098 3.928785 2.332268 1.782710 0.779657 2.299997 1.852487 0.726442 -1.763819 2.156997 0.486403 4.478277 12.931861 -6.912351 -0.000001 0.000000 -0.000000 8.870097 -8.291635 -0.285489 -43.687997 -3.584241 -46.718146 0.000093 -106.901121 0.000091 16.152837 0.668564 5.913341 -10.355880 -18.164528 -0.612243 10.166251 44.439185 3.473505 -4.021238 34.356302 21.444156 0.000001 0.000003 0.000002 14.702274 10.907137 -74.390295 5.247202 5.819908 -84.066037 1.122274 3.449733 -36.032888 -0.000003 -0.000003 0.000001 6.551725 9.294144 -62.102778 5.321221 5.827092 -84.795405 0.629971 2.644678 -26.791738 -0.000001 -0.000001 0.000005 2.431932 7.055165 -53.394072 4.432915 5.677179 -75.949859 0.393628 2.113012 -21.102583 0.000002 0.000000 0.000008 -1.623599 2.464327 -39.970100 4.432930 5.677177 -75.949846 0.393625 2.113002 -21.102576 -0.000002 0.000001 0.000001 4.887189 12.404647 -1.862104 -51.101771 31.948333 70.628329 -0.000108 111.504163 0.000131 4.802701 8.497736 -1.349065 -11.269579 20.282836 1.210516 10.083132 -46.337714 -3.955811 -2.729947 -40.589728 -21.861274 0.000001 -0.000001 -0.000000 -1.909771 -1.536822 39.260047 3.529765 -4.518936 75.975698 0.314031 -1.682770 21.139475 -0.000001 0.000000 -0.000001 1.887738 -5.985909 52.719823 3.529762 -4.518928 75.975712 0.314030 -1.682786 21.139476 -0.000001 0.000000 -0.000004 5.826241 -8.180343 61.423099 4.235978 -4.638116 84.805302 0.502515 -2.106126 26.835952 -0.000002 0.000000 -0.000005 13.716891 -9.803632 73.678910 4.177128 -4.632417 84.077334 0.894959 -2.746964 36.085139 -0.000000 0.000000 0.000000 -56.031867 -1.445754 22.849203 38.926546 -10.276773 -1.332909 8.009124 1.169617 -14.091194 0.200898 -0.000003 -0.000000 0.000000 0.000001 0.000000 -4.287124 -13.267014 -23.707798 39.249020 -0.812323 1.720351 -21.514119 -14.804915 26.979766 -15.813922 -0.000008 -0.000005 -0.000000 0.000002 -0.000001 
-2.262617 76.039986 0.337064 9.886917 -30.487489 2.767298 4.758478 4.598627 4.304585 2.574562 1.606995 0.984355 2.544383 1.679507 0.928186 -1.547416 2.252311 0.619076 4.231765 13.864924 -8.538602 -0.000002 -0.000000 0.000000 8.815001 -8.792667 0.057687 -44.651774 -1.653599 -46.165061 -0.000118 -106.356127 -0.000170 16.483039 0.681899 5.724735 -10.355877 -18.164526 -0.612242 10.166258 44.439181 3.473504 -4.021224 34.356313 21.444158 0.000001 -0.000002 -0.000003 14.702267 10.907144 -74.390295 5.247201 5.819913 -84.066037 1.122273 3.449729 -36.032885 -0.000000 0.000002 -0.000007 6.551725 9.294148 -62.102785 5.321222 5.827094 -84.795405 0.629967 2.644682 -26.791741 -0.000002 -0.000002 0.000001 2.431934 7.055171 -53.394075 4.432915 5.677182 -75.949853 0.393627 2.113010 -21.102583 0.000002 0.000000 0.000004 -1.623597 2.464332 -39.970100 4.432930 5.677180 -75.949846 0.393626 2.113003 -21.102568 -0.000003 -0.000000 0.000001 4.927130 12.376717 -2.423204 -52.419363 33.366639 71.506678 0.000025 110.978054 0.000004 4.810106 8.546343 -1.125664 -11.269583 20.282829 1.210517 10.083136 -46.337714 -3.955815 -2.729949 -40.589728 -21.861270 -0.000001 -0.000001 -0.000001 -1.909769 -1.536827 39.260043 3.529763 -4.518939 75.975705 0.314027 -1.682767 21.139471 0.000003 0.000002 -0.000001 1.887739 -5.985916 52.719819 3.529762 -4.518931 75.975712 0.314029 -1.682783 21.139478 0.000000 0.000000 -0.000001 5.826239 -8.180351 61.423099 4.235976 -4.638112 84.805302 0.502512 -2.106121 26.835957 -0.000004 -0.000001 -0.000003 13.716894 -9.803638 73.678917 4.177131 -4.632413 84.077341 0.894962 -2.746964 36.085139 -0.000001 0.000006 0.000001 -57.015165 -1.683494 23.226967 40.296542 -10.009130 -1.663671 7.850625 1.188542 -14.107831 0.255480 -0.000006 0.000782 0.000000 -0.000000 0.000000 -5.641586 -12.775700 -24.778024 41.619000 -0.613166 1.862561 -23.591098 -14.549392 26.717943 -14.772188 -0.000007 0.000009 -0.000000 0.000001 -0.000000 
-2.021148 74.918892 -0.036652 9.873302 -31.080007 3.202616 5.290005 4.347587 4.696927 2.850605 1.428510 1.222471 2.822638 1.505083 1.163336 -1.314695 2.379342 0.657990 3.882868 14.840915 -10.165401 0.000001 0.000000 0.000000 8.758380 -9.315067 0.436964 -45.535495 0.566668 -45.989504 -0.000096 -106.037512 -0.000114 16.863935 0.549628 5.390755 -10.355880 -18.164521 -0.612244 10.166251 44.439185 3.473510 -4.021229 34.356306 21.444158 0.000004 -0.000001 -0.000002 14.702269 10.907146 -74.390295 5.247197 5.819914 -84.066043 1.122276 3.449732 -36.032885 0.000006 -0.000003 -0.000003 6.551725 9.294151 -62.102785 5.321220 5.827101 -84.795405 0.629964 2.644678 -26.791738 -0.000004 -0.000001 0.000005 2.431936 7.055171 -53.394068 4.432910 5.677179 -75.949853 0.393626 2.113012 -21.102585 0.000003 0.000001 0.000007 -1.623602 2.464337 -39.970096 4.432929 5.677171 -75.949846 0.393619 2.112999 -21.102575 -0.000001 0.000001 -0.000001 4.956665 12.334895 -2.829827 -53.622374 34.675436 72.306418 0.000085 110.488159 -0.000059 4.883735 8.339862 -0.966025 -11.269582 20.282829 1.210512 10.083137 -46.337714 -3.955815 -2.729956 -40.589731 -21.861274 0.000000 -0.000001 -0.000000 -1.909771 -1.536822 39.260047 3.529759 -4.518938 75.975705 0.314032 -1.682769 21.139475 0.000001 -0.000003 0.000003 1.887739 -5.985916 52.719823 3.529763 -4.518931 75.975705 0.314031 -1.682786 21.139476 0.000003 0.000001 -0.000004 5.826241 -8.180349 61.423106 4.235976 -4.638116 84.805309 0.502513 -2.106125 26.835952 -0.000001 0.000001 0.000002 13.716891 -9.803633 73.678917 4.177133 -4.632411 84.077341 0.894960 -2.746964 36.085139 0.000002 0.000001 -0.000001 -58.194708 -1.997845 23.595387 42.132415 -9.831289 -1.978201 7.578906 1.219500 -14.140794 0.023021 -0.000019 0.005004 -0.000000 -0.000002 0.000000 -7.071234 -12.150463 -26.139581 44.550469 -0.279724 2.050548 -25.786473 -14.224153 26.589441 -13.986230 0.000005 0.000009 -0.000000 -0.000001 0.000000 
-1.798229 73.711678 -0.337478 9.819315 -31.643314 3.660432 5.799607 4.041410 5.019649 3.100856 1.226543 1.455952 3.074692 1.309210 1.395175 -1.134189 2.512683 0.712375 3.539160 15.812779 -11.461763 0.000001 0.000000 -0.000001 8.715482 -9.580665 1.025737 -46.111522 2.939555 -46.400750 0.000090 -105.879646 0.000078 17.433698 0.344968 4.937694 -10.355879 -18.164524 -0.612243 10.166248 44.439191 3.473514 -4.021229 34.356302 21.444163 0.000003 -0.000002 -0.000003 14.702272 10.907153 -74.390295 5.247205 5.819913 -84.066030 1.122268 3.449727 -36.032882 0.000002 -0.000003 0.000001 6.551727 9.294153 -62.102778 5.321222 5.827099 -84.795405 0.629969 2.644679 -26.791738 -0.000000 0.000002 -0.000002 2.431936 7.055168 -53.394078 4.432912 5.677183 -75.949853 0.393624 2.113009 -21.102585 0.000002 -0.000002 0.000002 -1.623596 2.464335 -39.970093 4.432934 5.677173 -75.949846 0.393618 2.112998 -21.102566 0.000002 0.000003 -0.000001 4.973490 12.291358 -3.050694 -54.603592 35.655507 73.041442 0.000078 110.099863 -0.000049 4.871274 8.251429 -0.835215 -11.269582 20.282834 1.210517 10.083139 -46.337714 -3.955818 -2.729952 -40.589728 -21.861272 -0.000001 0.000000 0.000005 -1.909770 -1.536826 39.260043 3.529767 -4.518935 75.975698 0.314031 -1.682772 21.139470 -0.000001 0.000001 -0.000001 1.887734 -5.985915 52.719826 3.529767 -4.518930 75.975712 0.314025 -1.682786 21.139475 0.000002 0.000000 -0.000004 5.826239 -8.180351 61.423106 4.235976 -4.638116 84.805302 0.502515 -2.106126 26.835952 -0.000001 0.000001 -0.000003 13.716895 -9.803632 73.678917 4.177132 -4.632414 84.077341 0.894959 -2.746961 36.085132 -0.000003 0.000003 -0.000001 -59.380080 -2.321510 23.926156 44.181236 -9.721511 -2.289322 7.087146 1.323678 -14.154478 -0.131668 -0.000014 0.000000 -0.000000 0.000002 0.000000 -8.547814 -11.448614 -27.728608 47.701744 0.188425 2.278290 -27.761606 -13.819967 26.549396 -13.616900 -0.000012 0.000004 0.000000 -0.000001 -0.000000 
-1.615247 72.653793 -0.527819 9.796981 -32.170362 4.156368 6.184883 3.680863 5.221669 3.273136 1.005530 1.640100 3.247761 1.096464 1.579691 -1.084254 2.624237 0.853014 3.324729 16.700371 -12.308531 -0.000001 -0.000000 -0.000000 8.691706 -9.467441 1.824263 -46.243912 5.194330 -47.363738 -0.000037 -105.792930 -0.000059 18.251468 0.174255 4.538491 -10.355876 -18.164526 -0.612248 10.166250 44.439185 3.473509 -4.021225 34.356309 21.444156 0.000004 -0.000000 -0.000001 14.702276 10.907149 -74.390302 5.247206 5.819915 -84.066030 1.122274 3.449731 -36.032885 0.000000 0.000001 0.000001 6.551725 9.294146 -62.102785 5.321222 5.827097 -84.795412 0.629968 2.644680 -26.791738 -0.000003 -0.000001 0.000001 2.431934 7.055167 -53.394075 4.432914 5.677179 -75.949853 0.393624 2.113009 -21.102583 -0.000002 -0.000002 0.000001 -1.623594 2.464330 -39.970103 4.432931 5.677175 -75.949846 0.393626 2.113001 -21.102576 0.000000 0.000001 0.000001 4.975906 12.235979 -3.051902 -55.200998 36.202137 73.732760 -0.000041 109.850711 0.000062 4.715642 8.494123 -0.755377 -11.269582 20.282827 1.210513 10.083129 -46.337711 -3.955818 -2.729948 -40.589731 -21.861269 -0.000003 0.000000 0.000002 -1.909771 -1.536823 39.260050 3.529762 -4.518933 75.975705 0.314032 -1.682769 21.139473 0.000002 -0.000003 -0.000001 1.887738 -5.985918 52.719823 3.529764 -4.518932 75.975712 0.314030 -1.682783 21.139473 -0.000001 0.000003 -0.000001 5.826241 -8.180354 61.423106 4.235979 -4.638112 84.805302 0.502513 -2.106124 26.835943 0.000001 0.000001 -0.000001 13.716894 -9.803632 73.678917 4.177130 -4.632417 84.077334 0.894959 -2.746955 36.085136 -0.000000 -0.000000 0.000002 -60.352269 -2.564063 24.214814 46.023416 -9.628737 -2.630418 6.544683 1.458005 -14.129514 -0.167550 0.000000 -0.000001 0.000000 0.000000 0.000000 -9.899570 -10.775983 -29.296864 50.463268 0.700912 2.458276 -29.275536 -13.429453 26.553773 -13.526481 0.000014 0.000006 -0.000000 -0.000001 -0.000001 
